<svg width="476" height="333" viewBox="0 0 476 333" fill="none" xmlns="http://www.w3.org/2000/svg">
<path d="M99.3751 75.3169L3 139.165L99.3751 203.096L195.667 139.165L99.3751 75.3169Z" stroke="white" stroke-width="3"/>
<path d="M292.042 203.098L195.667 266.945L292.042 330.877L388.333 266.945L292.042 203.098Z" stroke="white" stroke-width="3"/>
<path d="M292.042 -52.4612L195.667 11.3867L292.042 75.3177L388.333 11.3867L292.042 -52.4612Z" stroke="white" stroke-width="3"/>
<path d="M484.708 75.3169L388.333 139.165L484.708 203.096L581 139.165L484.708 75.3169Z" stroke="white" stroke-width="3"/>
<path d="M195.708 139.208L99.3334 203.056L195.708 266.987L292 203.056L195.708 139.208Z" stroke="white" stroke-width="3"/>
<path d="M388.375 11.428L292 75.2758L388.375 139.207L484.667 75.2758L388.375 11.428Z" stroke="white" stroke-width="3"/>
<path d="M292 203.056L388.375 139.208H484.667L436.521 171.132L388.375 203.056H292Z" fill="#FF6C22" fill-opacity="0.1"/>
<path d="M292 203.056L291.172 201.806C290.62 202.171 290.373 202.855 290.564 203.489C290.755 204.123 291.338 204.556 292 204.556V203.056ZM388.375 139.208V137.708H387.924L387.547 137.958L388.375 139.208ZM388.375 203.056V204.556H388.827L389.204 204.306L388.375 203.056ZM484.667 139.208L485.496 140.459L489.643 137.708H484.667V139.208ZM436.521 171.132L437.35 172.383L436.521 171.132ZM292.829 204.307L389.204 140.459L387.547 137.958L291.172 201.806L292.829 204.307ZM292 204.556H388.375V201.556H292V204.556ZM484.667 137.708H388.375V140.708H484.667V137.708ZM389.204 204.306L437.35 172.383L435.692 169.882L387.546 201.806L389.204 204.306ZM437.35 172.383L485.496 140.459L483.838 137.958L435.692 169.882L437.35 172.383Z" fill="#FF6C22"/>
<path d="M292 75.2773L195.709 139.208L129.878 41.3048L227.386 -22.1343L292 75.2773Z" fill="#FF6C22" fill-opacity="0.1"/>
<path d="M195.709 139.208L194.464 140.045C194.924 140.73 195.851 140.914 196.538 140.458L195.709 139.208ZM292 75.2773L292.83 76.527L294.079 75.6976L293.25 74.4482L292 75.2773ZM129.878 41.3048L129.06 40.0474L127.784 40.878L128.634 42.1417L129.878 41.3048ZM227.386 -22.1343L228.636 -22.9634L227.815 -24.2024L226.568 -23.3916L227.386 -22.1343ZM291.171 74.0277L194.879 137.959L196.538 140.458L292.83 76.527L291.171 74.0277ZM196.953 138.371L131.123 40.4678L128.634 42.1417L194.464 140.045L196.953 138.371ZM130.696 42.5621L228.204 -20.877L226.568 -23.3916L129.06 40.0474L130.696 42.5621ZM226.136 -21.3051L290.75 76.1065L293.25 74.4482L228.636 -22.9634L226.136 -21.3051Z" fill="#FF6C22"/>
<path d="M292.042 75.3176L195.667 139.165L292.042 203.097L388.334 139.165L292.042 75.3176Z" fill="#FB925D"/>
<path d="M195.667 139.165L194.839 137.915C194.419 138.193 194.167 138.662 194.167 139.165C194.167 139.668 194.419 140.137 194.838 140.415L195.667 139.165ZM292.042 75.3176L292.871 74.0675L292.043 73.5181L291.214 74.0671L292.042 75.3176ZM292.042 203.097L291.213 204.347C291.716 204.68 292.369 204.68 292.872 204.346L292.042 203.097ZM388.334 139.165L389.163 140.415L391.047 139.165L389.163 137.915L388.334 139.165ZM196.495 140.416L292.871 76.5681L291.214 74.0671L194.839 137.915L196.495 140.416ZM292.871 201.847L196.496 137.915L194.838 140.415L291.213 204.347L292.871 201.847ZM291.213 76.5678L387.505 140.416L389.163 137.915L292.871 74.0675L291.213 76.5678ZM387.504 137.916L291.212 201.847L292.872 204.346L389.163 140.415L387.504 137.916Z" fill="#FF6C22"/>
<g opacity="0.8" filter="url(#filter0_f_16_816)">
<path d="M292.042 82.4209L195.667 146.269L292.042 210.2L388.333 146.269L292.042 82.4209Z" fill="black"/>
</g>
<path d="M292.042 -51.5056L195.667 11.8921L292.042 75.3724L388.333 11.8921L292.042 -51.5056Z" fill="#F8F8F8"/>
<path d="M388.333 11.8921L292.042 75.3724V171.706L388.333 108.225V11.8921Z" fill="#D0D3D8"/>
<path d="M292.042 75.3724L195.667 11.8921V108.225L292.042 171.706V75.3724Z" fill="#F1F2F4"/>
<path d="M195.667 11.8921L292.042 -51.5056L388.333 11.8921M195.667 11.8921L292.042 75.3724M195.667 11.8921V108.225L292.042 171.706M292.042 75.3724L388.333 11.8921M292.042 75.3724V171.706M388.333 11.8921V108.225L292.042 171.706" stroke="#FFBE9D" stroke-width="3" stroke-linejoin="round"/>
<defs>
<filter id="filter0_f_16_816" x="160.667" y="47.4209" width="262.667" height="197.779" filterUnits="userSpaceOnUse" color-interpolation-filters="sRGB">
<feFlood flood-opacity="0" result="BackgroundImageFix"/>
<feBlend mode="normal" in="SourceGraphic" in2="BackgroundImageFix" result="shape"/>
<feGaussianBlur stdDeviation="17.5" result="effect1_foregroundBlur_16_816"/>
</filter>
</defs>
</svg>
