<svg width="756" height="362" viewBox="0 0 756 362" fill="none" xmlns="http://www.w3.org/2000/svg">
<rect x="0.00457764" y="322.664" width="10.3991" height="54.6974" fill="#FF2828"/>
<rect x="14.5618" y="297.138" width="10.3991" height="80.2229" fill="#FF6C22"/>
<rect x="27.0445" y="298.962" width="10.3991" height="32.8184" fill="#FF2828"/>
<rect x="106.076" y="271.613" width="10.3991" height="9.11623" fill="#FF2828"/>
<rect x="155.991" y="340.896" width="10.3991" height="10.9395" fill="#FF2828"/>
<rect x="118.551" y="280.729" width="10.3991" height="12.7627" fill="#FF2828"/>
<rect x="168.465" y="315.372" width="10.3991" height="36.4649" fill="#FF6C22"/>
<rect x="180.951" y="271.613" width="10.3991" height="43.7579" fill="#FF6C22"/>
<rect x="193.43" y="231.501" width="10.3991" height="40.1114" fill="#FF6C22"/>
<rect x="205.905" y="231.501" width="10.3991" height="9.11623" fill="#FF6C22"/>
<rect x="232.945" y="231.501" width="10.3991" height="20.0557" fill="#FF6C22"/>
<rect x="245.422" y="216.915" width="10.3991" height="16.4092" fill="#FF6C22"/>
<rect x="401.408" y="112.991" width="10.3991" height="30.9952" fill="#FF6C22"/>
<rect x="438.845" y="91.1111" width="10.3991" height="30.9952" fill="#FF6C22"/>
<rect x="478.363" y="92.9346" width="10.3991" height="25.5255" fill="#FF6C22"/>
<rect x="503.322" y="80.1716" width="10.3991" height="27.3487" fill="#FF6C22"/>
<rect x="413.888" y="112.991" width="10.3991" height="7.29299" fill="#FF6C22"/>
<rect x="220.468" y="231.501" width="10.3991" height="40.1114" fill="#FF2828"/>
<rect x="376.448" y="133.047" width="10.3991" height="9.11623" fill="#FF2828"/>
<rect x="426.365" y="112.991" width="10.3991" height="9.11623" fill="#FF2828"/>
<rect x="453.4" y="91.1111" width="10.3991" height="10.9395" fill="#FF2828"/>
<rect x="515.8" y="67.4099" width="10.3991" height="10.9395" fill="#FF6C22"/>
<rect x="590.672" y="89.2888" width="10.3991" height="23.7022" fill="#FF6C22"/>
<rect x="603.146" y="63.7629" width="10.3991" height="25.5255" fill="#FF6C22"/>
<rect x="615.632" y="45.5298" width="10.3991" height="18.2325" fill="#FF6C22"/>
<rect x="665.549" y="102.051" width="10.3991" height="18.2325" fill="#FF6C22"/>
<rect x="678.021" y="98.4036" width="10.3991" height="3.64649" fill="#FF6C22"/>
<rect x="690.5" y="67.4099" width="10.3991" height="30.9952" fill="#FF6C22"/>
<rect x="715.463" y="52.8223" width="10.3991" height="16.4092" fill="#FF6C22"/>
<rect x="752.898" y="58.2927" width="10.3991" height="18.2325" fill="#FF6C22"/>
<rect x="702.983" y="67.4099" width="10.3991" height="3.64649" fill="#FF6C22"/>
<rect x="628.109" y="30.9436" width="10.3991" height="12.7627" fill="#FF6C22"/>
<rect x="640.589" y="30.9436" width="10.3991" height="12.7627" fill="#FF2828"/>
<rect x="727.938" y="52.8223" width="10.3991" height="9.11623" fill="#FF2828"/>
<rect x="740.42" y="63.7629" width="10.3991" height="12.7627" fill="#FF2828"/>
<rect x="653.063" y="47.3533" width="10.3991" height="72.9299" fill="#FF2828"/>
<rect x="465.883" y="102.051" width="10.3991" height="14.586" fill="#FF2828"/>
<rect x="490.837" y="92.9346" width="10.3991" height="14.586" fill="#FF2828"/>
<rect x="528.277" y="67.4099" width="10.3991" height="30.9952" fill="#FF2828"/>
<rect x="540.757" y="98.4036" width="10.3991" height="12.7627" fill="#FF2828"/>
<rect x="553.24" y="98.4036" width="10.3991" height="5.46974" fill="#FF2828"/>
<rect x="578.197" y="105.697" width="10.3991" height="3.64649" fill="#FF2828"/>
<rect x="565.714" y="107.521" width="10.3991" height="1.82325" fill="#FF6C22"/>
<rect x="388.928" y="142.161" width="10.3991" height="3.64649" fill="#FF2828"/>
<rect x="301.579" y="346.365" width="10.3991" height="40.1114" fill="#FF2828"/>
<rect x="314.054" y="350.012" width="10.3991" height="36.4649" fill="#FF6C22"/>
<rect x="339.014" y="329.957" width="10.3991" height="25.5255" fill="#FF6C22"/>
<rect x="351.494" y="267.967" width="10.3991" height="61.9904" fill="#FF6C22"/>
<rect x="363.974" y="133.047" width="10.3991" height="134.92" fill="#FF6C22"/>
<rect x="257.9" y="216.915" width="10.3991" height="3.64649" fill="#FF2828"/>
<rect x="326.537" y="351.835" width="10.3991" height="3.64649" fill="#FF2828"/>
<rect x="270.38" y="220.562" width="10.3991" height="3.64649" fill="#FF2828"/>
<rect x="289.097" y="224.209" width="10.3991" height="120.334" fill="#FF2828"/>
<rect x="143.508" y="308.078" width="10.3991" height="32.8184" fill="#FF2828"/>
<rect x="131.028" y="291.669" width="10.3991" height="16.4092" fill="#FF2828"/>
<rect x="66.5616" y="291.669" width="10.3991" height="32.8184" fill="#FF2828"/>
<rect x="41.6017" y="306.254" width="10.3991" height="25.5255" fill="#FF6C22"/>
<rect x="54.079" y="291.669" width="10.3991" height="12.7627" fill="#FF6C22"/>
<rect x="68.6389" y="293.493" width="10.3991" height="49.2277" fill="#FF2828"/>
<rect x="81.1189" y="291.669" width="10.3991" height="49.2277" fill="#FF6C22"/>
<rect x="93.5962" y="271.613" width="10.3991" height="18.2325" fill="#FF6C22"/>
<rect x="4.16199" y="282.552" width="2.07983" height="102.102" fill="#FF2828"/>
<rect x="18.7219" y="286.199" width="2.07983" height="100.279" fill="#FF6C22"/>
<rect x="31.2045" y="289.846" width="2.07983" height="45.5812" fill="#FF2828"/>
<rect x="110.234" y="262.497" width="2.07983" height="27.3487" fill="#FF2828"/>
<rect x="160.148" y="313.548" width="2.07983" height="49.2277" fill="#FF2828"/>
<rect x="122.713" y="269.79" width="2.07983" height="34.6417" fill="#FF2828"/>
<rect x="172.633" y="309.901" width="2.07983" height="29.1719" fill="#FF6C22"/>
<rect x="185.108" y="267.967" width="2.07983" height="58.3439" fill="#FF6C22"/>
<rect x="197.59" y="226.031" width="2.07983" height="51.0509" fill="#FF6C22"/>
<rect x="210.062" y="226.031" width="2.07983" height="51.0509" fill="#FF6C22"/>
<rect x="237.105" y="195.036" width="2.07983" height="61.9904" fill="#FF6C22"/>
<rect x="249.58" y="184.097" width="2.07983" height="56.5206" fill="#FF6C22"/>
<rect x="405.568" y="45.5298" width="2.07983" height="102.102" fill="#FF6C22"/>
<rect x="443.005" y="71.0557" width="2.07983" height="54.6974" fill="#FF6C22"/>
<rect x="482.523" y="58.2927" width="2.07983" height="63.8136" fill="#FF6C22"/>
<rect x="507.483" y="54.6458" width="2.07983" height="89.3391" fill="#FF6C22"/>
<rect x="418.043" y="89.2888" width="2.07983" height="54.6974" fill="#FF6C22"/>
<rect x="224.625" y="226.031" width="2.07983" height="51.0509" fill="#FF2828"/>
<rect x="380.608" y="109.344" width="2.07983" height="63.8136" fill="#FF2828"/>
<rect x="430.528" y="74.7012" width="2.07983" height="52.8742" fill="#FF2828"/>
<rect x="457.563" y="67.4099" width="2.07983" height="47.4044" fill="#FF2828"/>
<rect x="519.963" y="18.1819" width="2.07983" height="74.7531" fill="#FF6C22"/>
<rect x="594.831" y="78.3481" width="2.07983" height="36.4649" fill="#FF6C22"/>
<rect x="607.312" y="30.9436" width="2.07983" height="60.1671" fill="#FF6C22"/>
<rect x="619.789" y="25.4744" width="2.07983" height="56.5206" fill="#FF6C22"/>
<rect x="669.706" y="89.2888" width="2.07983" height="61.9904" fill="#FF6C22"/>
<rect x="682.181" y="71.0557" width="2.07983" height="54.6974" fill="#FF6C22"/>
<rect x="694.663" y="60.1162" width="2.07983" height="43.7579" fill="#FF6C22"/>
<rect x="719.62" y="30.9436" width="2.07983" height="72.9299" fill="#FF6C22"/>
<rect x="707.143" y="56.4692" width="2.07983" height="25.5255" fill="#FF6C22"/>
<rect x="632.266" y="25.4744" width="2.07983" height="29.1719" fill="#FF6C22"/>
<rect x="644.12" y="-26.9324" width="2.94792" height="129.21" fill="#FF2828"/>
<rect x="732.098" y="30.9436" width="2.07983" height="47.4044" fill="#FF2828"/>
<rect x="744.575" y="43.7075" width="2.07983" height="52.8742" fill="#FF2828"/>
<rect x="657.223" y="43.7075" width="2.07983" height="129.451" fill="#FF2828"/>
<rect x="470.043" y="78.3481" width="2.07983" height="52.8742" fill="#FF2828"/>
<rect x="495" y="71.0557" width="2.07983" height="45.5812" fill="#FF2828"/>
<rect x="532.437" y="60.1162" width="2.07983" height="49.2277" fill="#FF2828"/>
<rect x="544.914" y="91.1111" width="2.07983" height="29.1719" fill="#FF2828"/>
<rect x="557.394" y="85.6418" width="2.07983" height="30.9952" fill="#FF2828"/>
<rect x="582.349" y="92.9346" width="2.07983" height="49.2277" fill="#FF2828"/>
<rect x="569.877" y="78.3481" width="2.07983" height="60.1671" fill="#FF6C22"/>
<rect x="393.086" y="133.047" width="2.07983" height="58.3439" fill="#FF2828"/>
<rect x="305.734" y="331.78" width="2.07983" height="80.2229" fill="#FF2828"/>
<rect x="318.217" y="335.427" width="2.07983" height="69.2834" fill="#FF6C22"/>
<rect x="343.174" y="333.604" width="2.07983" height="38.2882" fill="#FF6C22"/>
<rect x="355.656" y="249.734" width="2.07983" height="105.748" fill="#FF6C22"/>
<rect x="368.131" y="129.4" width="2.07983" height="167.739" fill="#FF6C22"/>
<rect x="262.06" y="202.33" width="2.07983" height="34.6417" fill="#FF2828"/>
<rect x="330.691" y="344.543" width="2.07983" height="38.2882" fill="#FF2828"/>
<rect x="274.537" y="187.743" width="2.07983" height="40.1114" fill="#FF2828"/>
<rect x="293.259" y="218.739" width="2.07983" height="154.976" fill="#FF2828"/>
<rect x="147.679" y="297.138" width="2.07983" height="54.6974" fill="#FF2828"/>
<rect x="135.188" y="289.846" width="2.07983" height="40.1114" fill="#FF2828"/>
<rect x="70.7163" y="282.552" width="2.07983" height="45.5812" fill="#FF2828"/>
<rect x="45.7563" y="293.493" width="2.07983" height="36.4649" fill="#FF6C22"/>
<rect x="58.2391" y="266.143" width="2.07983" height="43.7579" fill="#FF6C22"/>
<rect x="72.7963" y="282.552" width="2.07983" height="92.9856" fill="#FF2828"/>
<rect x="85.2735" y="275.259" width="2.07983" height="83.8694" fill="#FF6C22"/>
<rect x="97.7563" y="266.143" width="2.07983" height="29.1719" fill="#FF6C22"/>
</svg>
