<svg width="678" height="400" viewBox="0 0 678 400" fill="none" xmlns="http://www.w3.org/2000/svg">
<g clip-path="url(#clip0_10_88)">
<rect width="678" height="400" rx="20" fill="white"/>
<g opacity="0.3" filter="url(#filter0_f_10_88)">
<rect x="44" y="194" width="755" height="413" rx="206.5" fill="#FF6C22"/>
</g>
<path d="M301.375 75.3169L205 139.165L301.375 203.096L397.667 139.165L301.375 75.3169Z" stroke="white" stroke-width="3"/>
<path d="M494.042 203.098L397.667 266.945L494.042 330.877L590.333 266.945L494.042 203.098Z" stroke="white" stroke-width="3"/>
<path d="M494.042 -52.4612L397.667 11.3867L494.042 75.3177L590.333 11.3867L494.042 -52.4612Z" stroke="white" stroke-width="3"/>
<path d="M686.708 75.3169L590.333 139.165L686.708 203.096L783 139.165L686.708 75.3169Z" stroke="white" stroke-width="3"/>
<path d="M397.708 139.208L301.333 203.056L397.708 266.987L494 203.056L397.708 139.208Z" stroke="white" stroke-width="3"/>
<path d="M590.375 11.428L494 75.2758L590.375 139.207L686.667 75.2758L590.375 11.428Z" stroke="white" stroke-width="3"/>
<path d="M494 203.056L590.375 139.208H686.667L638.521 171.132L590.375 203.056H494Z" fill="#FF6C22" fill-opacity="0.1"/>
<path d="M494 203.056L493.172 201.806C492.62 202.171 492.373 202.855 492.564 203.489C492.755 204.123 493.338 204.556 494 204.556V203.056ZM590.375 139.208V137.708H589.924L589.547 137.958L590.375 139.208ZM590.375 203.056V204.556H590.827L591.204 204.306L590.375 203.056ZM686.667 139.208L687.496 140.459L691.643 137.708H686.667V139.208ZM638.521 171.132L639.35 172.383L638.521 171.132ZM494.829 204.307L591.204 140.459L589.547 137.958L493.172 201.806L494.829 204.307ZM494 204.556H590.375V201.556H494V204.556ZM686.667 137.708H590.375V140.708H686.667V137.708ZM591.204 204.306L639.35 172.383L637.692 169.882L589.546 201.806L591.204 204.306ZM639.35 172.383L687.496 140.459L685.838 137.958L637.692 169.882L639.35 172.383Z" fill="#FF6C22"/>
<path d="M494 75.2773L397.709 139.208L331.878 41.3048L429.386 -22.1343L494 75.2773Z" fill="#FF6C22" fill-opacity="0.1"/>
<path d="M397.709 139.208L396.464 140.045C396.924 140.73 397.851 140.914 398.538 140.458L397.709 139.208ZM494 75.2773L494.83 76.527L496.079 75.6976L495.25 74.4482L494 75.2773ZM331.878 41.3048L331.06 40.0474L329.784 40.878L330.634 42.1417L331.878 41.3048ZM429.386 -22.1343L430.636 -22.9634L429.815 -24.2024L428.568 -23.3916L429.386 -22.1343ZM493.171 74.0277L396.879 137.959L398.538 140.458L494.83 76.527L493.171 74.0277ZM398.953 138.371L333.123 40.4678L330.634 42.1417L396.464 140.045L398.953 138.371ZM332.696 42.5621L430.204 -20.877L428.568 -23.3916L331.06 40.0474L332.696 42.5621ZM428.136 -21.3051L492.75 76.1065L495.25 74.4482L430.636 -22.9634L428.136 -21.3051Z" fill="#FF6C22"/>
<path d="M494.042 75.3176L397.667 139.165L494.042 203.097L590.334 139.165L494.042 75.3176Z" fill="#FB925D"/>
<path d="M397.667 139.165L396.839 137.915C396.419 138.193 396.167 138.662 396.167 139.165C396.167 139.668 396.419 140.137 396.838 140.415L397.667 139.165ZM494.042 75.3176L494.871 74.0675L494.043 73.5181L493.214 74.0671L494.042 75.3176ZM494.042 203.097L493.213 204.347C493.716 204.68 494.369 204.68 494.872 204.346L494.042 203.097ZM590.334 139.165L591.163 140.415L593.047 139.165L591.163 137.915L590.334 139.165ZM398.495 140.416L494.871 76.5681L493.214 74.0671L396.839 137.915L398.495 140.416ZM494.871 201.847L398.496 137.915L396.838 140.415L493.213 204.347L494.871 201.847ZM493.213 76.5678L589.505 140.416L591.163 137.915L494.871 74.0675L493.213 76.5678ZM589.504 137.916L493.212 201.847L494.872 204.346L591.163 140.415L589.504 137.916Z" fill="#FF6C22"/>
<g opacity="0.8" filter="url(#filter1_f_10_88)">
<path d="M494.042 82.4209L397.667 146.269L494.042 210.2L590.333 146.269L494.042 82.4209Z" fill="black"/>
</g>
<path d="M494.042 -51.5056L397.667 11.8921L494.042 75.3724L590.333 11.8921L494.042 -51.5056Z" fill="#F8F8F8"/>
<path d="M590.333 11.8921L494.042 75.3724V171.706L590.333 108.225V11.8921Z" fill="#D0D3D8"/>
<path d="M494.042 75.3724L397.667 11.8921V108.225L494.042 171.706V75.3724Z" fill="#F1F2F4"/>
<path d="M397.667 11.8921L494.042 -51.5056L590.333 11.8921M397.667 11.8921L494.042 75.3724M397.667 11.8921V108.225L494.042 171.706M494.042 75.3724L590.333 11.8921M494.042 75.3724V171.706M590.333 11.8921V108.225L494.042 171.706" stroke="#FFBE9D" stroke-width="3" stroke-linejoin="round"/>
</g>
<rect x="0.5" y="0.5" width="677" height="399" rx="19.5" stroke="#DEDEDE"/>
<defs>
<filter id="filter0_f_10_88" x="-156" y="-6" width="1155" height="813" filterUnits="userSpaceOnUse" color-interpolation-filters="sRGB">
<feFlood flood-opacity="0" result="BackgroundImageFix"/>
<feBlend mode="normal" in="SourceGraphic" in2="BackgroundImageFix" result="shape"/>
<feGaussianBlur stdDeviation="100" result="effect1_foregroundBlur_10_88"/>
</filter>
<filter id="filter1_f_10_88" x="362.667" y="47.4209" width="262.667" height="197.779" filterUnits="userSpaceOnUse" color-interpolation-filters="sRGB">
<feFlood flood-opacity="0" result="BackgroundImageFix"/>
<feBlend mode="normal" in="SourceGraphic" in2="BackgroundImageFix" result="shape"/>
<feGaussianBlur stdDeviation="17.5" result="effect1_foregroundBlur_10_88"/>
</filter>
<clipPath id="clip0_10_88">
<rect width="678" height="400" rx="20" fill="white"/>
</clipPath>
</defs>
</svg>
