<svg width="295" height="400" viewBox="0 0 295 400" fill="none" xmlns="http://www.w3.org/2000/svg">
<g filter="url(#filter0_d_70_845)">
<path d="M347 81.6396H113.537C113.537 138.98 134.24 191.454 168.618 232.042L175.882 216.272C181.159 204.813 181.159 191.625 175.882 180.187L144.923 113.009L212.204 143.909C223.677 149.18 236.881 149.18 248.355 143.909L315.614 113.009L284.698 180.208C279.399 191.667 279.399 204.855 284.698 216.293L315.614 283.492L248.355 252.592C236.86 247.321 223.677 247.321 212.204 252.592L196.414 259.848C237.052 294.184 289.633 314.862 347 314.862V81.6396Z" fill="#FF6C22"/>
</g>
<path d="M165.028 291.175L113.537 314.82L137.231 263.391C141.462 268.406 145.906 273.228 150.542 277.859C155.179 282.49 160.007 286.929 165.028 291.154V291.175Z" fill="#FF6C22"/>
<g filter="url(#filter1_d_70_845)">
<path d="M346 313.86C289.833 313.623 238.325 293.481 198.267 260.097L212.621 253.501C223.829 248.352 236.707 248.352 247.938 253.501L315.196 284.401L317.652 285.529L316.522 283.074L285.606 215.876L285.605 215.873C280.43 204.702 280.43 191.821 285.605 180.628L285.606 180.626L316.522 113.427L317.652 110.972L315.196 112.1L247.937 143C236.729 148.15 223.83 148.15 212.621 143L212.621 143L145.34 112.1L142.883 110.972L144.015 113.428L174.974 180.605L174.974 180.606C180.129 191.778 180.129 204.66 174.974 215.854L168.369 230.193C134.943 190.185 114.776 138.78 114.539 82.6396H346V313.86Z" stroke="url(#paint0_linear_70_845)" stroke-width="2"/>
<path d="M149.836 278.567C154.126 282.852 158.58 286.973 163.199 290.915L115.576 312.783L137.484 265.233C141.427 269.841 145.55 274.286 149.836 278.567Z" stroke="url(#paint1_linear_70_845)" stroke-width="2"/>
</g>
<line y1="82" x2="170" y2="82" stroke="url(#paint2_linear_70_845)" stroke-width="2"/>
<line x1="114" y1="168" x2="114" y2="-2" stroke="url(#paint3_linear_70_845)" stroke-width="2"/>
<line x1="78.1713" y1="391.614" x2="170.725" y2="193.132" stroke="url(#paint4_linear_70_845)" stroke-width="2"/>
<line x1="198.901" y1="234.681" x2="154.567" y2="135.104" stroke="url(#paint5_linear_70_845)" stroke-width="2"/>
<line x1="188.232" y1="172.48" x2="293.391" y2="121.191" stroke="url(#paint6_linear_70_845)" stroke-width="2"/>
<line x1="261" y1="82" x2="431" y2="82" stroke="url(#paint7_linear_70_845)" stroke-width="2"/>
<line x1="264" y1="315" x2="434" y2="315" stroke="url(#paint8_linear_70_845)" stroke-width="2"/>
<line x1="36.9419" y1="348.66" x2="226.046" y2="264.465" stroke="url(#paint9_linear_70_845)" stroke-width="2"/>
<circle cx="229.5" cy="200.5" r="164.5" stroke="url(#paint10_linear_70_845)" stroke-width="2"/>
<defs>
<filter id="filter0_d_70_845" x="13.5369" y="-14.3604" width="433.463" height="433.222" filterUnits="userSpaceOnUse" color-interpolation-filters="sRGB">
<feFlood flood-opacity="0" result="BackgroundImageFix"/>
<feColorMatrix in="SourceAlpha" type="matrix" values="0 0 0 0 0 0 0 0 0 0 0 0 0 0 0 0 0 0 127 0" result="hardAlpha"/>
<feOffset dy="4"/>
<feGaussianBlur stdDeviation="50"/>
<feComposite in2="hardAlpha" operator="out"/>
<feColorMatrix type="matrix" values="0 0 0 0 1 0 0 0 0 0.423529 0 0 0 0 0.133333 0 0 0 0.2 0"/>
<feBlend mode="normal" in2="BackgroundImageFix" result="effect1_dropShadow_70_845"/>
<feBlend mode="normal" in="SourceGraphic" in2="effect1_dropShadow_70_845" result="shape"/>
</filter>
<filter id="filter1_d_70_845" x="99.0369" y="71.1396" width="262.463" height="262.222" filterUnits="userSpaceOnUse" color-interpolation-filters="sRGB">
<feFlood flood-opacity="0" result="BackgroundImageFix"/>
<feColorMatrix in="SourceAlpha" type="matrix" values="0 0 0 0 0 0 0 0 0 0 0 0 0 0 0 0 0 0 127 0" result="hardAlpha"/>
<feOffset dy="4"/>
<feGaussianBlur stdDeviation="7.25"/>
<feComposite in2="hardAlpha" operator="out"/>
<feColorMatrix type="matrix" values="0 0 0 0 1 0 0 0 0 0.423529 0 0 0 0 0.133333 0 0 0 1 0"/>
<feBlend mode="normal" in2="BackgroundImageFix" result="effect1_dropShadow_70_845"/>
<feBlend mode="normal" in="SourceGraphic" in2="effect1_dropShadow_70_845" result="shape"/>
</filter>
<linearGradient id="paint0_linear_70_845" x1="230.268" y1="81.6396" x2="230.268" y2="314.862" gradientUnits="userSpaceOnUse">
<stop stop-color="white"/>
<stop offset="1" stop-color="#FF6C22"/>
</linearGradient>
<linearGradient id="paint1_linear_70_845" x1="139.283" y1="263.391" x2="139.283" y2="314.82" gradientUnits="userSpaceOnUse">
<stop stop-color="white"/>
<stop offset="1" stop-color="#FF6C22"/>
</linearGradient>
<linearGradient id="paint2_linear_70_845" x1="0" y1="83.5" x2="170" y2="83.5" gradientUnits="userSpaceOnUse">
<stop stop-color="#FBFBFB" stop-opacity="0"/>
<stop offset="0.545" stop-color="#FBFBFB"/>
<stop offset="1" stop-color="#FBFBFB" stop-opacity="0"/>
</linearGradient>
<linearGradient id="paint3_linear_70_845" x1="115.5" y1="168" x2="115.5" y2="-2" gradientUnits="userSpaceOnUse">
<stop stop-color="#FBFBFB" stop-opacity="0"/>
<stop offset="0.545" stop-color="#FBFBFB"/>
<stop offset="1" stop-color="#FBFBFB" stop-opacity="0"/>
</linearGradient>
<linearGradient id="paint4_linear_70_845" x1="79.5308" y1="392.248" x2="172.084" y2="193.766" gradientUnits="userSpaceOnUse">
<stop stop-color="#FBFBFB" stop-opacity="0"/>
<stop offset="0.545" stop-color="#FBFBFB"/>
<stop offset="1" stop-color="#FBFBFB" stop-opacity="0"/>
</linearGradient>
<linearGradient id="paint5_linear_70_845" x1="200.271" y1="234.071" x2="155.937" y2="134.494" gradientUnits="userSpaceOnUse">
<stop stop-color="#FBFBFB" stop-opacity="0"/>
<stop offset="0.545" stop-color="#FBFBFB"/>
<stop offset="1" stop-color="#FBFBFB" stop-opacity="0"/>
</linearGradient>
<linearGradient id="paint6_linear_70_845" x1="188.89" y1="173.829" x2="294.049" y2="122.539" gradientUnits="userSpaceOnUse">
<stop stop-color="#FBFBFB" stop-opacity="0"/>
<stop offset="0.545" stop-color="#FBFBFB"/>
<stop offset="1" stop-color="#FBFBFB" stop-opacity="0"/>
</linearGradient>
<linearGradient id="paint7_linear_70_845" x1="261" y1="83.5" x2="431" y2="83.5" gradientUnits="userSpaceOnUse">
<stop stop-color="#FBFBFB" stop-opacity="0"/>
<stop offset="0.545" stop-color="#FBFBFB"/>
<stop offset="1" stop-color="#FBFBFB" stop-opacity="0"/>
</linearGradient>
<linearGradient id="paint8_linear_70_845" x1="264" y1="316.5" x2="434" y2="316.5" gradientUnits="userSpaceOnUse">
<stop stop-color="#FBFBFB" stop-opacity="0"/>
<stop offset="0.545" stop-color="#FBFBFB"/>
<stop offset="1" stop-color="#FBFBFB" stop-opacity="0"/>
</linearGradient>
<linearGradient id="paint9_linear_70_845" x1="37.552" y1="350.03" x2="226.656" y2="265.836" gradientUnits="userSpaceOnUse">
<stop stop-color="#FBFBFB" stop-opacity="0"/>
<stop offset="0.545" stop-color="#FBFBFB"/>
<stop offset="1" stop-color="#FBFBFB" stop-opacity="0"/>
</linearGradient>
<linearGradient id="paint10_linear_70_845" x1="113.65" y1="79.1333" x2="349.864" y2="313.842" gradientUnits="userSpaceOnUse">
<stop stop-color="white"/>
<stop offset="0.37" stop-color="white" stop-opacity="0"/>
<stop offset="0.62" stop-color="white" stop-opacity="0"/>
<stop offset="1" stop-color="white"/>
</linearGradient>
</defs>
</svg>
