<svg width="35" height="35" viewBox="0 0 35 35" fill="none" xmlns="http://www.w3.org/2000/svg">
<g id="Group">
<path id="Vector" d="M34.5369 0H0C0 8.48246 3.06271 16.2452 8.14826 22.2495L9.22289 19.9166C10.0036 18.2213 10.0036 16.2704 9.22289 14.5783L4.64305 4.64057L14.5961 9.21169C16.2934 9.99143 18.2467 9.99143 19.944 9.21169L29.8938 4.64057L25.3203 14.5815C24.5364 16.2767 24.5364 18.2277 25.3203 19.9197L29.8938 29.8606L19.944 25.2895C18.2435 24.5098 16.2934 24.5098 14.5961 25.2895L12.2603 26.3629C18.272 31.4422 26.0504 34.5012 34.5369 34.5012V0Z" fill="#FF6C22"/>
<path id="Vector_2" d="M7.61726 30.9972L0 34.495L3.50521 26.887C4.13102 27.6288 4.78845 28.3423 5.47432 29.0273C6.16019 29.7123 6.8745 30.369 7.61726 30.994V30.9972Z" fill="#FF6C22"/>
</g>
</svg>
