<svg width="25" height="25" viewBox="0 0 25 25" fill="none" xmlns="http://www.w3.org/2000/svg">
<g clip-path="url(#clip0_645_34800)">
<rect x="6.87744" y="1.65137" width="16.7077" height="16.7077" rx="8.35384" fill="#32383E"/>
<g filter="url(#filter0_d_645_34800)">
<g clip-path="url(#clip1_645_34800)">
<mask id="mask0_645_34800" style="mask-type:luminance" maskUnits="userSpaceOnUse" x="4" y="1" width="23" height="18">
<rect x="4.30713" y="1.65137" width="21.8485" height="16.7077" fill="white"/>
</mask>
<g mask="url(#mask0_645_34800)">
<path fill-rule="evenodd" clip-rule="evenodd" d="M9.76929 1.65137H20.6935V18.3591H9.76929V1.65137Z" fill="#F7FCFF"/>
<path fill-rule="evenodd" clip-rule="evenodd" d="M15.2152 6.52441L15.2313 14.8783H14.8219L15.0731 12.8109C13.2364 13.1479 12.3939 13.2314 12.5458 13.0614C12.6976 12.8914 12.8173 12.6506 12.9047 12.3387L10.4519 10.6702C10.7098 10.6669 10.9437 10.6016 11.1536 10.4744C11.3634 10.3471 11.2585 9.90619 10.8388 9.15151L12.0772 9.33521L12.5458 8.81603L13.4801 9.81308H13.9001L13.4801 7.52926L14.2329 7.95802L15.2152 6.52441ZM15.2152 6.52441L16.2296 7.95802L16.9824 7.52926L16.5624 9.81308H16.9824L17.9168 8.81603L18.3853 9.33521L19.6237 9.15151C19.204 9.90619 19.0991 10.3471 19.3089 10.4744C19.5188 10.6016 19.7527 10.6669 20.0106 10.6702L17.5578 12.3387C17.6453 12.6506 17.7649 12.8914 17.9168 13.0614C18.0686 13.2314 17.2262 13.1479 15.3894 12.8109L15.6406 14.8783H15.2313L15.2152 6.52441Z" fill="#E31D1C"/>
<path fill-rule="evenodd" clip-rule="evenodd" d="M20.6936 1.65137H26.1557V18.3591H20.6936V1.65137Z" fill="#E31D1C"/>
<path fill-rule="evenodd" clip-rule="evenodd" d="M4.30713 1.65137H9.76926V18.3591H4.30713V1.65137Z" fill="#E31D1C"/>
</g>
<rect x="4.30713" y="1.65137" width="21.8485" height="16.7077" fill="url(#paint0_linear_645_34800)" style="mix-blend-mode:overlay"/>
</g>
<rect x="4.80713" y="2.15137" width="20.8485" height="15.7077" rx="3.5" stroke="black" stroke-opacity="0.1" style="mix-blend-mode:multiply"/>
</g>
</g>
<rect x="6.37744" y="1.15137" width="17.7077" height="17.7077" rx="8.85384" stroke="#202020"/>
<g clip-path="url(#clip2_645_34800)">
<rect x="1.41504" y="7.11328" width="16.7077" height="16.7077" rx="8.35384" fill="#32383E"/>
<g filter="url(#filter1_d_645_34800)">
<g clip-path="url(#clip3_645_34800)">
<mask id="mask1_645_34800" style="mask-type:luminance" maskUnits="userSpaceOnUse" x="-2" y="7" width="23" height="17">
<rect x="-1.15527" y="7.11328" width="21.8485" height="16.7077" fill="white"/>
</mask>
<g mask="url(#mask1_645_34800)">
<path fill-rule="evenodd" clip-rule="evenodd" d="M-1.15527 7.11328V23.821H20.6932V7.11328H-1.15527Z" fill="#2E42A5"/>
<mask id="mask2_645_34800" style="mask-type:luminance" maskUnits="userSpaceOnUse" x="-2" y="7" width="23" height="17">
<path fill-rule="evenodd" clip-rule="evenodd" d="M-1.15527 7.11328V23.821H20.6932V7.11328H-1.15527Z" fill="white"/>
</mask>
<g mask="url(#mask2_645_34800)">
<rect x="-1.15527" y="7.11328" width="12.2898" height="9.74615" fill="#2B409A"/>
<mask id="mask3_645_34800" style="mask-type:luminance" maskUnits="userSpaceOnUse" x="-2" y="7" width="14" height="10">
<rect x="-1.15527" y="7.11328" width="12.2898" height="9.74615" fill="white"/>
</mask>
<g mask="url(#mask3_645_34800)">
<path d="M-2.52393 16.1637L0.180477 17.373L11.1957 8.42867L12.6222 6.63153L9.73022 6.22733L5.23738 10.0817L1.62111 12.6787L-2.52393 16.1637Z" fill="#F7FCFF"/>
<path d="M-2.15381 17.0111L-0.776041 17.7129L12.1098 6.46464H10.1753L-2.15381 17.0111Z" fill="#F50100"/>
<path d="M12.5029 16.1637L9.79853 17.373L-1.21667 8.42867L-2.64318 6.63153L0.248787 6.22733L4.74162 10.0817L8.35789 12.6787L12.5029 16.1637Z" fill="#F7FCFF"/>
<path d="M12.4106 16.7718L11.0329 17.4736L5.54595 12.6577L3.91919 12.1196L-2.78044 6.63771H-0.8459L5.84997 11.9895L7.62854 12.6347L12.4106 16.7718Z" fill="#F50100"/>
<path fill-rule="evenodd" clip-rule="evenodd" d="M5.66181 7.11328H4.29628V11.2902H-1.15527V12.6825H4.29628V16.8594H5.66181V12.6825H11.1345V11.2902H5.66181V7.11328Z" fill="#F50100"/>
<path fill-rule="evenodd" clip-rule="evenodd" d="M3.27211 6.06934H6.68594V10.2463H12.1586V13.727H6.68594V17.9039H3.27211V13.727H-2.17944V10.2463H3.27211V6.06934ZM4.29626 11.2905H-1.15529V12.6828H4.29626V16.8597H5.66179V12.6828H11.1345V11.2905H5.66179V7.11357H4.29626V11.2905Z" fill="#F7FCFF"/>
</g>
</g>
<g clip-path="url(#clip4_645_34800)">
<path d="M4.9897 21.3846L4.10098 22.2221L4.18899 20.9915L2.99276 20.8051L3.99123 20.1081L3.38828 19.0383L4.54534 19.3996L4.9897 18.252L5.43407 19.3996L6.59113 19.0383L5.98818 20.1081L6.98665 20.8051L5.79042 20.9915L5.87843 22.2221L4.9897 21.3846Z" fill="#F7FCFF"/>
<path d="M13.8658 16.1637L13.2733 16.7219L13.332 15.9015L12.5345 15.7773L13.2001 15.3126L12.7982 14.5994L13.5695 14.8403L13.8658 14.0752L14.162 14.8403L14.9334 14.5994L14.5314 15.3126L15.1971 15.7773L14.3996 15.9015L14.4583 16.7219L13.8658 16.1637Z" fill="#F7FCFF"/>
<path d="M15.2313 10.5943L14.6388 11.1526L14.6974 10.3322L13.9 10.208L14.5656 9.74326L14.1636 9.03008L14.935 9.27095L15.2313 8.50586L15.5275 9.27095L16.2989 9.03008L15.8969 9.74326L16.5625 10.208L15.7651 10.3322L15.8237 11.1526L15.2313 10.5943Z" fill="#F7FCFF"/>
<path d="M18.6451 13.3785L18.0526 13.9368L18.1113 13.1164L17.3138 12.9922L17.9794 12.5274L17.5775 11.8143L18.3488 12.0551L18.6451 11.29L18.9413 12.0551L19.7127 11.8143L19.3107 12.5274L19.9764 12.9922L19.1789 13.1164L19.2376 13.9368L18.6451 13.3785Z" fill="#F7FCFF"/>
<path d="M15.9139 22.4293L15.3214 22.9876L15.3801 22.1672L14.5826 22.0429L15.2482 21.5782L14.8463 20.865L15.6176 21.1059L15.9139 20.3408L16.2101 21.1059L16.9815 20.865L16.5795 21.5782L17.2452 22.0429L16.4477 22.1672L16.5064 22.9876L15.9139 22.4293Z" fill="#F7FCFF"/>
<path d="M18.3037 17.0341L17.7017 17.3568L17.8167 16.6733L17.3297 16.1893L18.0027 16.0896L18.3037 15.4678L18.6047 16.0896L19.2777 16.1893L18.7907 16.6733L18.9057 17.3568L18.3037 17.0341Z" fill="#F7FCFF"/>
</g>
</g>
<rect x="-1.15527" y="7.11328" width="21.8485" height="16.7077" fill="url(#paint1_linear_645_34800)" style="mix-blend-mode:overlay"/>
</g>
<rect x="-0.655273" y="7.61328" width="20.8485" height="15.7077" rx="3.5" stroke="black" stroke-opacity="0.1" style="mix-blend-mode:multiply"/>
</g>
</g>
<rect x="0.915039" y="6.61328" width="17.7077" height="17.7077" rx="8.85384" stroke="#202020"/>
<defs>
<filter id="filter0_d_645_34800" x="1.30713" y="0.651367" width="27.8486" height="22.708" filterUnits="userSpaceOnUse" color-interpolation-filters="sRGB">
<feFlood flood-opacity="0" result="BackgroundImageFix"/>
<feColorMatrix in="SourceAlpha" type="matrix" values="0 0 0 0 0 0 0 0 0 0 0 0 0 0 0 0 0 0 127 0" result="hardAlpha"/>
<feOffset dy="2"/>
<feGaussianBlur stdDeviation="1.5"/>
<feColorMatrix type="matrix" values="0 0 0 0 0 0 0 0 0 0 0 0 0 0 0 0 0 0 0.1 0"/>
<feBlend mode="normal" in2="BackgroundImageFix" result="effect1_dropShadow_645_34800"/>
<feBlend mode="normal" in="SourceGraphic" in2="effect1_dropShadow_645_34800" result="shape"/>
</filter>
<filter id="filter1_d_645_34800" x="-4.15527" y="6.11328" width="27.8486" height="22.708" filterUnits="userSpaceOnUse" color-interpolation-filters="sRGB">
<feFlood flood-opacity="0" result="BackgroundImageFix"/>
<feColorMatrix in="SourceAlpha" type="matrix" values="0 0 0 0 0 0 0 0 0 0 0 0 0 0 0 0 0 0 127 0" result="hardAlpha"/>
<feOffset dy="2"/>
<feGaussianBlur stdDeviation="1.5"/>
<feColorMatrix type="matrix" values="0 0 0 0 0 0 0 0 0 0 0 0 0 0 0 0 0 0 0.1 0"/>
<feBlend mode="normal" in2="BackgroundImageFix" result="effect1_dropShadow_645_34800"/>
<feBlend mode="normal" in="SourceGraphic" in2="effect1_dropShadow_645_34800" result="shape"/>
</filter>
<linearGradient id="paint0_linear_645_34800" x1="15.2314" y1="1.65137" x2="15.2314" y2="18.3591" gradientUnits="userSpaceOnUse">
<stop stop-color="white" stop-opacity="0.7"/>
<stop offset="1" stop-opacity="0.3"/>
</linearGradient>
<linearGradient id="paint1_linear_645_34800" x1="9.76898" y1="7.11328" x2="9.76898" y2="23.821" gradientUnits="userSpaceOnUse">
<stop stop-color="white" stop-opacity="0.7"/>
<stop offset="1" stop-opacity="0.3"/>
</linearGradient>
<clipPath id="clip0_645_34800">
<rect x="6.87744" y="1.65137" width="16.7077" height="16.7077" rx="8.35384" fill="white"/>
</clipPath>
<clipPath id="clip1_645_34800">
<rect x="4.30713" y="1.65137" width="21.8485" height="16.7077" rx="4" fill="white"/>
</clipPath>
<clipPath id="clip2_645_34800">
<rect x="1.41504" y="7.11328" width="16.7077" height="16.7077" rx="8.35384" fill="white"/>
</clipPath>
<clipPath id="clip3_645_34800">
<rect x="-1.15527" y="7.11328" width="21.8485" height="16.7077" rx="4" fill="white"/>
</clipPath>
<clipPath id="clip4_645_34800">
<rect width="17.0691" height="14.6192" fill="white" transform="translate(2.94141 8.50586)"/>
</clipPath>
</defs>
</svg>
