<svg xmlns="http://www.w3.org/2000/svg" width="219" height="35" fill="none">
    <g fill="#fff">
        <path d="M34.537.25H0a34.3 34.3 0 0 0 8.148 22.249l1.075-2.333a6.376 6.376 0 0 0 0-5.338L4.643 4.89l9.953 4.571c1.697.78 3.65.78 5.348 0l9.95-4.57-4.574 9.94a6.353 6.353 0 0 0 0 5.338l4.574 9.941-9.95-4.571c-1.7-.78-3.65-.78-5.348 0l-2.336 1.073a34.404 34.404 0 0 0 22.277 8.139V.25ZM7.617 31.247 0 34.743l3.505-7.608a34.127 34.127 0 0 0 4.112 4.107v.004ZM157.696 34.997V0h24.78v7.5h-16.869V13.2h10.563v7.5h-10.563V35h-7.908l-.003-.003ZM55.602 34.997V0h16.92c2.904 0 5.202.464 6.896 1.389s2.905 2.112 3.629 3.56a10.061 10.061 0 0 1 1.087 4.55c0 1.582-.272 2.974-.812 4.274-.544 1.301-1.555 2.292-3.04 2.974 1.216.467 2.193 1.133 2.926 1.998a8.227 8.227 0 0 1 1.59 2.838c.325 1.026.487 1.995.487 2.914 0 1.266-.218 2.526-.651 3.776a9.454 9.454 0 0 1-2.064 3.387c-.942 1.007-2.188 1.815-3.73 2.424-1.543.61-3.433.913-5.67.913H55.6h.002Zm7.912-21.448h8.259c1.5 0 2.595-.278 3.277-.836.683-.56 1.028-1.314 1.028-2.264 0-.483-.086-.96-.25-1.424-.168-.467-.5-.852-1.002-1.161-.5-.31-1.252-.461-2.254-.461h-9.061v6.15l.003-.004Zm0 13.998h10.013c.951 0 1.7-.174 2.253-.524.55-.35.94-.777 1.163-1.276.225-.498.339-.982.339-1.449a4.01 4.01 0 0 0-.39-1.71c-.258-.56-.754-1.02-1.488-1.387-.733-.366-1.81-.549-3.23-.549h-8.66v6.901-.006ZM91.12 34.997V0h7.907v34.997H91.12ZM106.287 34.997V0h7.159l12.665 17.748c.152.218.392.61.727 1.174.335.565.575 1.042.727 1.424-.05-.335-.088-.796-.114-1.39a34.626 34.626 0 0 1-.038-1.262V0h7.861v34.997h-6.859l-12.965-17.9c-.167-.233-.414-.64-.739-1.224a23.633 23.633 0 0 1-.765-1.475c.082.449.129.928.139 1.437.009.508.012.928.012 1.262v17.9h-7.81ZM142.528 34.997V0h7.908v34.997h-7.908ZM197.59 34.997v-13.6L184.126 0h8.91l8.461 13 8.407-13h8.961L205.4 21.4V35h-7.81v-.003Z"/>
    </g>
</svg>