<svg width="1101" height="724" viewBox="0 0 1101 724" fill="none" xmlns="http://www.w3.org/2000/svg">
<g opacity="0.1" clip-path="url(#clip0_1082_24419)">
<rect width="14.9807" height="7.49037" transform="translate(2.73047 465.002)" fill="#FE3D31"/>
<rect x="10.2207" y="285.232" width="1.87259" height="209.73" rx="0.936297" fill="#FE3D31"/>
<rect width="14.9807" height="31.8341" transform="translate(28.9482 339.541)" fill="#00AD64"/>
<rect x="36.4385" y="330.181" width="1.87259" height="54.3052" rx="0.936297" fill="#00AD64"/>
<rect width="14.9807" height="7.49037" transform="translate(55.1641 294.594)" fill="#00AD64"/>
<rect x="62.6543" y="272.122" width="1.87259" height="44.9422" rx="0.936297" fill="#00AD64"/>
<rect width="14.9807" height="16.8533" transform="translate(343.543 185.986)" fill="#00AD64"/>
<rect x="349.16" y="64.2667" width="1.87259" height="209.73" rx="0.936297" fill="#00AD64"/>
<rect width="14.9807" height="16.8533" transform="translate(474.626 185.986)" fill="#00AD64"/>
<rect x="480" y="43" width="2" height="231" rx="1" fill="#00AD64"/>
<rect width="14.9807" height="16.8533" transform="translate(605.707 185.986)" fill="#00AD64"/>
<rect x="611.324" y="64.2667" width="1.87259" height="209.73" rx="0.936297" fill="#00AD64"/>
<rect x="742.407" y="171.007" width="1.87259" height="209.73" rx="0.936297" fill="#00AD64"/>
<rect width="14.9807" height="3.74519" transform="translate(81.3799 303.958)" fill="#FE3D31"/>
<rect x="88.8701" y="285.232" width="1.87259" height="33.7067" rx="0.936297" fill="#FE3D31"/>
<rect width="14.9807" height="140.444" transform="translate(369.761 114.826)" fill="#FE3D31"/>
<rect x="377.251" y="103.591" width="1.87259" height="209.73" rx="0.936297" fill="#FE3D31"/>
<rect width="14.9807" height="16.8533" transform="translate(500.843 238.418)" fill="#FE3D31"/>
<rect x="508.335" y="103.591" width="1.87259" height="372.646" rx="0.936297" fill="#FE3D31"/>
<rect width="14.9807" height="18.7259" transform="translate(631.924 114.826)" fill="#FE3D31"/>
<rect x="639.416" y="103.591" width="1.87259" height="56.1778" rx="0.936297" fill="#FE3D31"/>
<rect width="14.9807" height="3.74519" transform="translate(107.599 277.742)" fill="#00AD64"/>
<rect x="115.089" y="268.378" width="1.87259" height="26.2163" rx="0.936297" fill="#00AD64"/>
<rect width="14.9807" height="7.49037" transform="translate(133.813 264.635)" fill="#FE3D31"/>
<rect x="141.304" y="236.545" width="1.87259" height="65.5408" rx="0.936297" fill="#FE3D31"/>
<rect width="14.9807" height="20.5985" transform="translate(264.894 238.419)" fill="#FE3D31"/>
<rect x="272.386" y="116.7" width="1.87259" height="209.73" rx="0.936297" fill="#FE3D31"/>
<rect width="14.9807" height="20.5985" transform="translate(395.979 238.419)" fill="#FE3D31"/>
<rect x="403.469" y="116.7" width="1.87259" height="209.73" rx="0.936297" fill="#FE3D31"/>
<rect width="14.9807" height="13.1082" transform="translate(527.058 395.717)" fill="#FE3D31"/>
<rect x="534.548" y="352.647" width="1.87259" height="67.4134" rx="0.936297" fill="#FE3D31"/>
<rect width="14.9807" height="20.5985" transform="translate(658.138 345.157)" fill="#FE3D31"/>
<rect x="665.628" y="223.437" width="1.87259" height="209.73" rx="0.936297" fill="#FE3D31"/>
<rect width="14.9807" height="7.49037" transform="translate(160.03 264.635)" fill="#FE3D31"/>
<rect x="167.521" y="255.271" width="1.87259" height="37.4519" rx="0.936297" fill="#FE3D31"/>
<rect width="14.9807" height="16.8533" transform="translate(186.246 264.636)" fill="#00AD64"/>
<rect x="191.864" y="142.916" width="1.87259" height="191.005" rx="0.936297" fill="#00AD64"/>
<rect width="14.9807" height="16.8533" transform="translate(291.113 238.419)" fill="#00AD64"/>
<rect x="296.731" y="116.7" width="1.87259" height="191.005" rx="0.936297" fill="#00AD64"/>
<rect width="14.9807" height="16.8533" transform="translate(422.194 238.419)" fill="#00AD64"/>
<rect x="427.812" y="116.7" width="1.87259" height="191.005" rx="0.936297" fill="#00AD64"/>
<rect width="11.2356" height="12.64" transform="translate(557.022 320.343)" fill="#FE3D31"/>
<rect x="560.767" y="292.724" width="1.87259" height="80.5215" rx="0.936297" fill="#FE3D31"/>
<rect width="14.9807" height="16.8533" transform="translate(684.357 345.157)" fill="#00AD64"/>
<rect x="689.975" y="223.437" width="1.87259" height="191.005" rx="0.936297" fill="#00AD64"/>
<rect width="14.9807" height="56.1778" transform="translate(317.327 238.419)" fill="#00AD64"/>
<rect x="322.945" y="116.7" width="1.87259" height="191.005" rx="0.936297" fill="#00AD64"/>
<rect width="14.9807" height="56.1778" transform="translate(448.41 238.419)" fill="#00AD64"/>
<rect x="454.027" y="116.7" width="1.87259" height="191.005" rx="0.936297" fill="#00AD64"/>
<rect width="14.9807" height="56.1778" transform="translate(579.492 238.419)" fill="#FE3D31"/>
<rect x="585.11" y="238.419" width="1.87259" height="69.2859" rx="0.936297" fill="#FE3D31"/>
<rect width="14.9807" height="56.1778" transform="translate(710.572 259.016)" fill="#00AD64"/>
<rect x="718.062" y="223.437" width="1.87259" height="191.005" rx="0.936297" fill="#00AD64"/>
<rect width="14.9807" height="14.9807" transform="translate(212.463 369.5)" fill="#00AD64"/>
<rect x="219.953" y="197.221" width="1.87259" height="209.73" rx="0.936297" fill="#00AD64"/>
<rect width="14.9807" height="37.4519" transform="translate(238.679 322.685)" fill="#FE3D31"/>
<rect x="246.169" y="200.966" width="1.87259" height="209.73" rx="0.936297" fill="#FE3D31"/>
</g>
<defs>
<clipPath id="clip0_1082_24419">
<rect width="1101" height="724" fill="white"/>
</clipPath>
</defs>
</svg>
