<svg width="25" height="24" viewBox="0 0 25 24" fill="none" xmlns="http://www.w3.org/2000/svg">
<mask id="mask0_2342_26454" style="mask-type:alpha" maskUnits="userSpaceOnUse" x="7" y="1" width="17" height="17">
<circle cx="15.355" cy="9.355" r="8.355" fill="#D9D9D9"/>
</mask>
<g mask="url(#mask0_2342_26454)">
<path fill-rule="evenodd" clip-rule="evenodd" d="M7 1H29.6667V18H7V1Z" fill="#E31D1C"/>
<path fill-rule="evenodd" clip-rule="evenodd" d="M7 2.41667V3.83334H29.6667V2.41667H7ZM7 5.25V6.66667H29.6667V5.25H7ZM7 9.5V8.08334H29.6667V9.5H7ZM7 10.9167V12.3333H29.6667V10.9167H7ZM7 15.1667V13.75H29.6667V15.1667H7ZM7 18V16.5833H29.6667V18H7Z" fill="#F7FCFF"/>
<rect x="7" y="1" width="12.75" height="9.91667" fill="#2E42A5"/>
<path fill-rule="evenodd" clip-rule="evenodd" d="M8.33197 3.29968L8.82591 2.95562L9.30382 3.29968L9.15523 2.68739L9.53903 2.29937H9.05056L8.82522 1.79968L8.63303 2.29937H8.06003L8.49873 2.68739L8.33197 3.29968ZM11.1653 3.29968L11.6592 2.95562L12.1371 3.29968L11.9886 2.68739L12.3724 2.29937H11.8839L11.6585 1.79968L11.4664 2.29937H10.8934L11.3321 2.68739L11.1653 3.29968ZM14.4926 2.95562L13.9986 3.29968L14.1654 2.68739L13.7267 2.29937H14.2997L14.4919 1.79968L14.7172 2.29937H15.2057L14.8219 2.68739L14.9705 3.29968L14.4926 2.95562ZM16.832 3.29968L17.3259 2.95562L17.8038 3.29968L17.6552 2.68739L18.039 2.29937H17.5506L17.3252 1.79968L17.133 2.29937H16.56L16.9987 2.68739L16.832 3.29968ZM8.8259 5.78895L8.33197 6.13301L8.49873 5.52073L8.06003 5.1327H8.63303L8.82521 4.63301L9.05056 5.1327H9.53903L9.15523 5.52073L9.30382 6.13301L8.8259 5.78895ZM11.1653 6.13301L11.6592 5.78895L12.1371 6.13301L11.9886 5.52073L12.3724 5.1327H11.8839L11.6585 4.63301L11.4664 5.1327H10.8934L11.3321 5.52073L11.1653 6.13301ZM14.4926 5.78895L13.9986 6.13301L14.1654 5.52073L13.7267 5.1327H14.2997L14.4919 4.63301L14.7172 5.1327H15.2057L14.8219 5.52073L14.9705 6.13301L14.4926 5.78895ZM16.832 6.13301L17.3259 5.78895L17.8038 6.13301L17.6552 5.52073L18.039 5.1327H17.5506L17.3252 4.63301L17.133 5.1327H16.56L16.9987 5.52073L16.832 6.13301ZM8.8259 8.62229L8.33197 8.96635L8.49873 8.35406L8.06003 7.96604H8.63303L8.82521 7.46635L9.05056 7.96604H9.53903L9.15523 8.35406L9.30382 8.96635L8.8259 8.62229ZM11.1653 8.96635L11.6592 8.62229L12.1371 8.96635L11.9886 8.35406L12.3724 7.96604H11.8839L11.6585 7.46635L11.4664 7.96604H10.8934L11.3321 8.35406L11.1653 8.96635ZM14.4926 8.62229L13.9986 8.96635L14.1654 8.35406L13.7267 7.96604H14.2997L14.4919 7.46635L14.7172 7.96604H15.2057L14.8219 8.35406L14.9705 8.96635L14.4926 8.62229ZM16.832 8.96635L17.3259 8.62229L17.8038 8.96635L17.6552 8.35406L18.039 7.96604H17.5506L17.3252 7.46635L17.133 7.96604H16.56L16.9987 8.35406L16.832 8.96635ZM10.2426 4.37229L9.74864 4.71635L9.9154 4.10406L9.47669 3.71604H10.0497L10.2419 3.21635L10.4672 3.71604H10.9557L10.5719 4.10406L10.7205 4.71635L10.2426 4.37229ZM12.582 4.71635L13.0759 4.37229L13.5538 4.71635L13.4052 4.10406L13.789 3.71604H13.3006L13.0752 3.21635L12.883 3.71604H12.31L12.7487 4.10406L12.582 4.71635ZM15.9092 4.37229L15.4153 4.71635L15.5821 4.10406L15.1434 3.71604H15.7164L15.9085 3.21635L16.1339 3.71604H16.6224L16.2386 4.10406L16.3871 4.71635L15.9092 4.37229ZM9.74864 7.54968L10.2426 7.20562L10.7205 7.54968L10.5719 6.93739L10.9557 6.54937H10.4672L10.2419 6.04968L10.0497 6.54937H9.47669L9.9154 6.93739L9.74864 7.54968ZM13.0759 7.20562L12.582 7.54968L12.7487 6.93739L12.31 6.54937H12.883L13.0752 6.04968L13.3006 6.54937H13.789L13.4052 6.93739L13.5538 7.54968L13.0759 7.20562ZM15.4153 7.54968L15.9092 7.20562L16.3871 7.54968L16.2386 6.93739L16.6224 6.54937H16.1339L15.9085 6.04968L15.7164 6.54937H15.1434L15.5821 6.93739L15.4153 7.54968Z" fill="#F7FCFF"/>
</g>
<circle cx="15.355" cy="9.355" r="8.855" stroke="#202020"/>
<rect x="0.5" y="5.5" width="17.71" height="17.71" rx="8.855" stroke="#202020"/>
<path d="M17.46 16.3761C16.3442 20.8521 11.8108 23.576 7.33431 22.4599C2.85972 21.344 0.135751 16.8103 1.25211 12.3347C2.36749 7.85831 6.90089 5.13414 11.376 6.25001C15.8521 7.36588 18.5759 11.9001 17.4599 16.3762L17.46 16.3761H17.46Z" fill="#C8D8D2"/>
<path fill-rule="evenodd" clip-rule="evenodd" d="M10.7984 10.026C10.0179 9.85207 9.21212 9.95197 8.48614 10.3079C7.76181 10.663 7.15593 11.2532 6.73498 11.9923C6.58614 12.2536 6.46227 12.5302 6.36432 12.8173H5.4426C5.16645 12.8173 4.9426 13.0411 4.9426 13.3173C4.9426 13.5934 5.16645 13.8173 5.4426 13.8173H6.13382C6.1067 14.0319 6.09297 14.249 6.09297 14.4671C6.09297 14.6852 6.1067 14.9024 6.13383 15.117H5.4426C5.16645 15.117 4.9426 15.3409 4.9426 15.617C4.9426 15.8932 5.16645 16.117 5.4426 16.117H6.36434C6.46228 16.4041 6.58615 16.6807 6.73498 16.942C7.15593 17.681 7.76181 18.2713 8.48614 18.6264C9.21212 18.9823 10.0179 19.0822 10.7984 18.9083C11.5777 18.7347 12.2837 18.2991 12.8332 17.671C13.015 17.4632 12.9939 17.1473 12.786 16.9655C12.5782 16.7837 12.2623 16.8048 12.0805 17.0126C11.6596 17.4938 11.1361 17.8085 10.5809 17.9322C10.027 18.0556 9.45282 17.9866 8.92633 17.7285C8.39819 17.4696 7.93486 17.0281 7.60392 16.4471C7.54322 16.3405 7.48761 16.2303 7.43725 16.117H10.0421C10.3182 16.117 10.5421 15.8932 10.5421 15.617C10.5421 15.3409 10.3182 15.117 10.0421 15.117H7.14373C7.11017 14.9041 7.09297 14.6866 7.09297 14.4671C7.09297 14.2477 7.11017 14.0302 7.14372 13.8173H10.0421C10.3182 13.8173 10.5421 13.5934 10.5421 13.3173C10.5421 13.0411 10.3182 12.8173 10.0421 12.8173H7.43723C7.48759 12.704 7.54322 12.5938 7.60392 12.4872C7.93486 11.9062 8.39819 11.4647 8.92633 11.2058C9.45282 10.9477 10.027 10.8786 10.5809 11.002C11.1361 11.1257 11.6596 11.4405 12.0805 11.9217C12.2623 12.1295 12.5782 12.1506 12.786 11.9688C12.9939 11.7869 13.015 11.4711 12.8332 11.2632C12.2837 10.6352 11.5777 10.1996 10.7984 10.026Z" fill="#253D35"/>
</svg>
