<svg width="224" height="314" viewBox="0 0 224 314" fill="none" xmlns="http://www.w3.org/2000/svg">
<rect width="9.12697" height="10.2678" transform="translate(-9.01001 125.496)" fill="#10211A"/>
<rect x="71.0796" y="145.001" width="9.13871" height="51.786" rx="2" fill="#10211A"/>
<rect x="74.1257" y="129.77" width="1.21849" height="80.4206" rx="0.609247" fill="#10211A"/>
<rect x="150.891" y="66.4079" width="9.13871" height="58.4877" rx="2" fill="#10211A"/>
<rect x="154.134" y="51.3392" width="1.14087" height="90.7778" rx="0.570436" fill="#10211A"/>
<rect width="9.12697" height="85.5654" transform="translate(6.96289 82.1426)" fill="#2E1B1A"/>
<rect x="11.5264" y="75.2977" width="1.14087" height="127.778" rx="0.570436" fill="#2E1B1A"/>
<rect x="86.9202" y="175.463" width="9.13871" height="99.9165" rx="2" fill="#2E1B1A"/>
<rect x="91.3889" y="160.592" width="1.14087" height="129.16" rx="0.570436" fill="#2E1B1A"/>
<rect x="166.731" y="112.711" width="9.13871" height="102.353" rx="2" fill="#2E1B1A"/>
<rect x="171.249" y="105.76" width="1.14087" height="124.896" rx="0.570436" fill="#2E1B1A"/>
<rect x="22.949" y="157.186" width="9.13871" height="39.6011" rx="2" fill="#2E1B1A"/>
<rect x="27.499" y="150.301" width="1.14087" height="54.223" rx="0.570436" fill="#2E1B1A"/>
<rect x="102.76" y="194.35" width="9.13871" height="45.0843" rx="2" fill="#2E1B1A"/>
<rect x="107.359" y="184.387" width="1.14087" height="67.6264" rx="0.570436" fill="#2E1B1A"/>
<rect x="182.572" y="207.753" width="9.13871" height="53.6137" rx="2" fill="#2E1B1A"/>
<rect x="187.219" y="197.053" width="1.14087" height="77.3744" rx="0.570436" fill="#2E1B1A"/>
<rect x="38.7893" y="106.618" width="9.13871" height="87.7316" rx="2" fill="#10211A"/>
<rect x="42.3301" y="95.469" width="1.14087" height="116.369" rx="0.570436" fill="#10211A"/>
<rect x="119.21" y="159.013" width="9.13871" height="31.6808" rx="2" fill="#2E1B1A"/>
<rect x="123.332" y="147.879" width="1.14087" height="52.3952" rx="0.570436" fill="#2E1B1A"/>
<rect x="198.412" y="155.358" width="9.13871" height="77.3744" rx="2" fill="#10211A"/>
<rect x="202.052" y="148.314" width="1.14087" height="116.369" rx="0.570436" fill="#10211A"/>
<rect x="54.6299" y="125.505" width="9.13871" height="42.038" rx="2" fill="#10211A"/>
<rect x="58.302" y="113.746" width="1.14087" height="67.0172" rx="0.570436" fill="#10211A"/>
<rect x="134.441" y="107.837" width="9.13871" height="59.7062" rx="2" fill="#10211A"/>
<rect x="138.163" y="102.609" width="1.14087" height="76.7651" rx="0.570436" fill="#10211A"/>
<rect x="214.862" y="132.207" width="9.13871" height="71.8911" rx="2" fill="#10211A"/>
<rect x="219.164" y="123.944" width="1.14087" height="93.824" rx="0.570436" fill="#10211A"/>
</svg>
