<svg width="20" height="20" viewBox="0 0 20 20" fill="none" xmlns="http://www.w3.org/2000/svg">
<path d="M9.09466 10.5754C9.10119 10.5817 9.10781 10.5878 9.11454 10.5937C9.99595 11.4755 10.3408 12.7561 10.0199 13.9578L10.0199 13.9578C9.6962 15.1706 8.74328 16.1198 7.52058 16.4428C6.29874 16.7656 4.99749 16.4126 4.11014 15.5197C2.7794 14.1465 2.79916 11.9672 4.15535 10.6181C5.51409 9.26651 7.71243 9.24747 9.09466 10.5754ZM9.93211 9.64681C8.05851 7.87581 5.10491 7.91041 3.2738 9.73188L3.2738 9.73188C1.43164 11.5644 1.40569 14.5287 3.21565 16.3929L3.21562 16.3929L3.22033 16.3976C4.4233 17.6104 6.18616 18.0882 7.83982 17.6514L7.83984 17.6514C9.49372 17.2145 10.7875 15.9289 11.2276 14.2802C11.6679 12.6313 11.1857 10.8749 9.96622 9.67794C9.95514 9.66707 9.94376 9.65669 9.93211 9.64681ZM10.6238 14.119L11.2276 14.2802L10.6238 14.119Z" fill="#707070"/>
<path d="M17.1086 2.47456C17.3527 2.71864 17.3527 3.11437 17.1086 3.35845L10.0253 10.4418C9.78119 10.6859 9.38546 10.6859 9.14139 10.4418C8.89731 10.1977 8.89731 9.80197 9.14139 9.55789L16.2247 2.47456C16.4688 2.23048 16.8645 2.23048 17.1086 2.47456Z" fill="#707070"/>
<path d="M14.8254 3.9734C15.0692 3.73087 15.4631 3.73087 15.7069 3.9734L17.9688 6.2234C18.0867 6.3407 18.153 6.50017 18.153 6.6665C18.153 6.83284 18.0867 6.99231 17.9688 7.10961L15.3299 9.73461C15.0861 9.97714 14.6922 9.97713 14.4484 9.73461L12.1865 7.48461C12.0686 7.3673 12.0023 7.20783 12.0023 7.0415C12.0023 6.87517 12.0686 6.7157 12.1865 6.5984L14.8254 3.9734ZM15.2661 5.29806L13.5135 7.04151L14.8891 8.40994L16.6418 6.6665L15.2661 5.29806Z" fill="#707070"/>
</svg>
