<svg width="28" height="28" viewBox="0 0 28 28" fill="none" xmlns="http://www.w3.org/2000/svg">
<path d="M28.0002 0H0.000488281C0.000488281 6.88385 2.48367 13.1864 6.60538 18.0603L7.47545 16.1679C8.10778 14.7926 8.10778 13.2095 7.47545 11.8339L3.76441 3.76626L11.8323 7.47704C13.2077 8.10937 14.7907 8.10937 16.1684 7.47704L24.234 3.76626L20.5255 11.8341C19.8909 13.2095 19.8909 14.7926 20.5255 16.1682L24.234 24.2361L16.1684 20.5253C14.7907 19.893 13.2077 19.893 11.8323 20.5253L9.93997 21.3954C14.8138 25.5171 21.1187 28 28.0002 28V0Z" fill="#383842"/>
<path d="M6.17556 25.1593L0 28L2.8407 21.8245C3.34833 22.4267 3.88137 23.0059 4.43774 23.5623C4.99385 24.1184 5.57304 24.6514 6.17556 25.1593Z" fill="#383842"/>
</svg>
