<svg width="26" height="26" viewBox="0 0 26 26" fill="none" xmlns="http://www.w3.org/2000/svg">
<path opacity="0.2" d="M23.8332 8.46116V17.5287C23.8332 21.472 21.4823 23.8228 17.539 23.8228H8.46067C4.51734 23.8337 2.1665 21.4828 2.1665 17.5395V8.46116C2.1665 4.51783 4.51734 2.16699 8.46067 2.16699H17.5282C21.4823 2.16699 23.8332 4.51783 23.8332 8.46116Z" fill="white"/>
<path d="M13.5742 5.92583L18.2217 10.5733C18.5359 10.8875 18.5359 11.4075 18.2217 11.7217C17.9075 12.0358 17.3875 12.0358 17.0734 11.7217L13.8125 8.46083V19.5C13.8125 19.9442 13.4442 20.3125 13 20.3125C12.5559 20.3125 12.1875 19.9442 12.1875 19.5V8.46083L8.92671 11.7217C8.61254 12.0358 8.09254 12.0358 7.77837 11.7217C7.61587 11.5592 7.54004 11.3533 7.54004 11.1475C7.54004 10.9417 7.62671 10.725 7.77837 10.5733L12.4259 5.92583C12.5775 5.77417 12.7834 5.6875 13 5.6875C13.2167 5.6875 13.4225 5.77417 13.5742 5.92583Z" fill="white"/>
</svg>
