<svg width="20" height="20" viewBox="0 0 20 20" fill="none" xmlns="http://www.w3.org/2000/svg">
<circle cx="10.0031" cy="10.4201" r="7.50312" stroke="white" stroke-width="1.5" stroke-linecap="round" stroke-linejoin="round"/>
<path fill-rule="evenodd" clip-rule="evenodd" d="M6.79409 7.21133C6.96389 7.04154 7.23918 7.04154 7.40897 7.21133L13.2061 13.0084C13.3759 13.1782 13.3759 13.4535 13.2061 13.6233C13.0363 13.7931 12.761 13.7931 12.5912 13.6233L6.79409 7.8262C6.6243 7.65641 6.6243 7.38112 6.79409 7.21133Z" fill="white" stroke="white" stroke-width="0.5" stroke-linecap="round" stroke-linejoin="round"/>
<path fill-rule="evenodd" clip-rule="evenodd" d="M13.2061 7.21133C13.3759 7.38112 13.3759 7.65641 13.2061 7.8262L7.40897 13.6233C7.23918 13.7931 6.96389 13.7931 6.79409 13.6233C6.6243 13.4535 6.6243 13.1782 6.79409 13.0084L12.5912 7.21133C12.761 7.04154 13.0363 7.04154 13.2061 7.21133Z" fill="white" stroke="white" stroke-width="0.5" stroke-linecap="round" stroke-linejoin="round"/>
</svg>
