<svg width="20" height="20" viewBox="0 0 20 20" fill="none" xmlns="http://www.w3.org/2000/svg">
<path d="M18.2667 13.9582C17.9917 16.1748 16.175 17.9915 13.9584 18.2665C12.6167 18.4332 11.3667 18.0665 10.3917 17.3498C9.83338 16.9415 9.96671 16.0748 10.6334 15.8748C13.1417 15.1165 15.1167 13.1332 15.8834 10.6248C16.0834 9.9665 16.95 9.83317 17.3584 10.3832C18.0667 11.3665 18.4334 12.6165 18.2667 13.9582Z" fill="#707070"/>
<path d="M8.32508 1.66699C4.65008 1.66699 1.66675 4.65033 1.66675 8.32533C1.66675 12.0003 4.65008 14.9837 8.32508 14.9837C12.0001 14.9837 14.9834 12.0003 14.9834 8.32533C14.9751 4.65033 12.0001 1.66699 8.32508 1.66699ZM7.54175 7.39199L9.55008 8.09199C10.2751 8.35033 10.6251 8.85866 10.6251 9.64199C10.6251 10.542 9.90841 11.2837 9.03341 11.2837H8.95841V11.3253C8.95841 11.667 8.67508 11.9503 8.33341 11.9503C7.99175 11.9503 7.70841 11.667 7.70841 11.3253V11.2753C6.78341 11.2337 6.04175 10.4587 6.04175 9.49199C6.04175 9.15033 6.32508 8.86699 6.66675 8.86699C7.00841 8.86699 7.29175 9.15033 7.29175 9.49199C7.29175 9.79199 7.50841 10.0337 7.77508 10.0337H9.02508C9.21675 10.0337 9.36675 9.85866 9.36675 9.64199C9.36675 9.35033 9.31675 9.33366 9.12508 9.26699L7.11675 8.56699C6.40008 8.31699 6.04175 7.80866 6.04175 7.01699C6.04175 6.11699 6.75841 5.37533 7.63341 5.37533H7.70841V5.34199C7.70841 5.00033 7.99175 4.71699 8.33341 4.71699C8.67508 4.71699 8.95841 5.00033 8.95841 5.34199V5.39199C9.88341 5.43366 10.6251 6.20866 10.6251 7.17532C10.6251 7.51699 10.3417 7.80032 10.0001 7.80032C9.65841 7.80032 9.37508 7.51699 9.37508 7.17532C9.37508 6.87533 9.15841 6.63366 8.89175 6.63366H7.64175C7.45008 6.63366 7.30008 6.80866 7.30008 7.02533C7.29175 7.30866 7.34175 7.32533 7.54175 7.39199Z" fill="#707070"/>
</svg>
