<svg width="19" height="10" viewBox="0 0 19 10" fill="none" xmlns="http://www.w3.org/2000/svg">
<path d="M0.711852 4.47284L4.84296 0.215828C5.12222 -0.0719414 5.58444 -0.0719414 5.8637 0.215828C6.14296 0.503598 6.14296 0.979906 5.8637 1.26768L2.96519 4.25453L12.7778 4.25453C13.1726 4.25453 13.5 4.59191 13.5 4.99876C13.5 5.40561 13.1726 5.74299 12.7778 5.74299L2.96519 5.74299L5.8637 8.72984C6.14296 9.01761 6.14296 9.49392 5.8637 9.78169C5.71926 9.93054 5.5363 10 5.35333 10C5.17037 10 4.97778 9.92062 4.84296 9.78169L0.711852 5.52468C0.577037 5.38576 0.5 5.19722 0.5 4.99876C0.5 4.8003 0.577037 4.61176 0.711852 4.47284Z" fill="#707070"/>
<path d="M18.2881 5.52716L14.157 9.78417C13.8778 10.0719 13.4156 10.0719 13.1363 9.78417C12.857 9.4964 12.857 9.02009 13.1363 8.73232L16.0348 5.74547L6.22222 5.74547C5.82741 5.74547 5.5 5.40809 5.5 5.00124C5.5 4.59439 5.82741 4.25701 6.22222 4.25701L16.0348 4.25701L13.1363 1.27016C12.857 0.982386 12.857 0.506078 13.1363 0.218308C13.2807 0.0694615 13.4637 0 13.6467 0C13.8296 0 14.0222 0.0793846 14.157 0.218308L18.2881 4.47532C18.423 4.61424 18.5 4.80278 18.5 5.00124C18.5 5.1997 18.423 5.38824 18.2881 5.52716Z" fill="#707070"/>
</svg>
