<svg width="20" height="20" viewBox="0 0 20 20" fill="none" xmlns="http://www.w3.org/2000/svg">
<path fill-rule="evenodd" clip-rule="evenodd" d="M2.2915 8.33301C2.2915 7.98783 2.57133 7.70801 2.9165 7.70801H17.0832C17.4283 7.70801 17.7082 7.98783 17.7082 8.33301V18.333C17.7082 18.6782 17.4283 18.958 17.0832 18.958H2.9165C2.57133 18.958 2.2915 18.6782 2.2915 18.333V8.33301ZM3.5415 8.95801V17.708H16.4582V8.95801H3.5415Z" fill="#F9B036"/>
<path fill-rule="evenodd" clip-rule="evenodd" d="M10 7.70801C10.3452 7.70801 10.625 7.98783 10.625 8.33301V18.333C10.625 18.6782 10.3452 18.958 10 18.958C9.65482 18.958 9.375 18.6782 9.375 18.333V8.33301C9.375 7.98783 9.65482 7.70801 10 7.70801Z" fill="#F9B036"/>
<path fill-rule="evenodd" clip-rule="evenodd" d="M2.2915 18.333C2.2915 17.9878 2.57133 17.708 2.9165 17.708H17.0832C17.4283 17.708 17.7082 17.9878 17.7082 18.333C17.7082 18.6782 17.4283 18.958 17.0832 18.958H2.9165C2.57133 18.958 2.2915 18.6782 2.2915 18.333Z" fill="#F9B036"/>
<path fill-rule="evenodd" clip-rule="evenodd" d="M1.0415 5C1.0415 4.65482 1.32133 4.375 1.6665 4.375H18.3332C18.6783 4.375 18.9582 4.65482 18.9582 5V8.33333C18.9582 8.67851 18.6783 8.95833 18.3332 8.95833H1.6665C1.32133 8.95833 1.0415 8.67851 1.0415 8.33333V5ZM2.2915 5.625V7.70833H17.7082V5.625H2.2915Z" fill="#F9B036"/>
<path fill-rule="evenodd" clip-rule="evenodd" d="M6.22456 1.22505C6.46864 0.980973 6.86437 0.980973 7.10845 1.22505L9.99984 4.11644L12.8912 1.22505C13.1353 0.980973 13.531 0.980973 13.7751 1.22505C14.0192 1.46913 14.0192 1.86486 13.7751 2.10893L10.4418 5.44227C10.1977 5.68635 9.80197 5.68635 9.5579 5.44227L6.22456 2.10893C5.98048 1.86486 5.98048 1.46913 6.22456 1.22505Z" fill="#F9B036"/>
</svg>
