<svg
        width="20"
        height="20"
        viewBox="0 0 20 20"
        fill="none"
        xmlns="http://www.w3.org/2000/svg"
>
    <path
            d="M5.83333 10C2.5 10 2.5 11.4917 2.5 13.3333V14.1667C2.5 16.4667 2.5 18.3333 6.66667 18.3333H13.3333C16.6667 18.3333 17.5 16.4667 17.5 14.1667V13.3333C17.5 11.4917 17.5 10 14.1667 10C13.3333 10 13.1 10.175 12.6667 10.5L11.8167 11.4C10.8333 12.45 9.16667 12.45 8.175 11.4L7.33333 10.5C6.9 10.175 6.66667 10 5.83333 10Z"
            stroke="#707070"
            stroke-width="1.5"
            stroke-miterlimit="10"
            stroke-linecap="round"
            stroke-linejoin="round"
    />
    <path
            d="M15.8333 10V5.00002C15.8333 3.15835 15.8333 1.66669 12.5 1.66669H7.49996C4.16663 1.66669 4.16663 3.15835 4.16663 5.00002V10"
            stroke="#707070"
            stroke-width="1.5"
            stroke-miterlimit="10"
            stroke-linecap="round"
            stroke-linejoin="round"
    />
    <path
            d="M8.79163 7.69165H11.5666"
            stroke="#707070"
            stroke-width="1.5"
            stroke-linecap="round"
            stroke-linejoin="round"
    />
    <path
            d="M8.09998 5.19165H12.2666"
            stroke="#707070"
            stroke-width="1.5"
            stroke-linecap="round"
            stroke-linejoin="round"
    />
</svg>