<svg width="26" height="26" viewBox="0 0 26 26" fill="none" xmlns="http://www.w3.org/2000/svg">
<path d="M8.46067 23.3228L8.4593 23.3228C6.58738 23.328 5.15355 22.7744 4.18817 21.8102C3.22268 20.8459 2.6665 19.4118 2.6665 17.5395V8.46116C2.6665 6.58893 3.22264 5.15463 4.18839 4.18888C5.15414 3.22313 6.58844 2.66699 8.46067 2.66699H17.5282C19.4062 2.66699 20.8432 3.22334 21.8102 4.1891C22.777 5.15479 23.3332 6.58894 23.3332 8.46116V17.5287C23.3332 19.4009 22.777 20.8352 21.8113 21.8009C20.8455 22.7667 19.4112 23.3228 17.539 23.3228L8.46067 23.3228Z" fill="#00AD64" stroke="#027A48"/>
<path d="M13.5272 6.71185L17.7842 10.843C18.0719 11.1222 18.0719 11.5844 17.7842 11.8637C17.4964 12.143 17.0201 12.143 16.7323 11.8637L13.7455 8.96519V18.7778C13.7455 19.1726 13.4081 19.5 13.0012 19.5C12.5944 19.5 12.257 19.1726 12.257 18.7778V8.96519L9.27016 11.8637C8.98239 12.143 8.50608 12.143 8.21831 11.8637C8.06946 11.7193 8 11.5363 8 11.3533C8 11.1704 8.07938 10.9778 8.21831 10.843L12.4753 6.71185C12.6142 6.57704 12.8028 6.5 13.0012 6.5C13.1997 6.5 13.3882 6.57704 13.5272 6.71185Z" fill="#1B1B1B"/>
</svg>
