<svg width="26" height="26" viewBox="0 0 26 26" fill="none" xmlns="http://www.w3.org/2000/svg">
<path d="M17.5393 2.67718L17.5407 2.67717C19.4126 2.67203 20.8464 3.22563 21.8118 4.1898C22.7773 5.15408 23.3335 6.58819 23.3335 8.46051L23.3335 17.5388C23.3335 19.4111 22.7774 20.8454 21.8116 21.8111C20.8459 22.7769 19.4116 23.333 17.5393 23.333L8.47183 23.333C6.59382 23.333 5.15682 22.7767 4.18985 21.8109C3.22295 20.8452 2.66683 19.4111 2.66683 17.5388L2.66683 8.47134C2.66683 6.59911 3.22297 5.16481 4.18871 4.19906C5.15446 3.23331 6.58876 2.67717 8.46099 2.67717L17.5393 2.67718Z" fill="#FE3D31" stroke="#C21C11"/>
<path d="M12.4728 19.2881L8.21583 15.157C7.92806 14.8778 7.92806 14.4156 8.21583 14.1363C8.5036 13.857 8.97991 13.857 9.26767 14.1363L12.2545 17.0348L12.2545 7.22222C12.2545 6.82741 12.5919 6.5 12.9988 6.5C13.4056 6.5 13.743 6.82741 13.743 7.22222L13.743 17.0348L16.7298 14.1363C17.0176 13.857 17.4939 13.857 17.7817 14.1363C17.9305 14.2807 18 14.4637 18 14.6467C18 14.8296 17.9206 15.0222 17.7817 15.157L13.5247 19.2881C13.3858 19.423 13.1972 19.5 12.9988 19.5C12.8003 19.5 12.6118 19.423 12.4728 19.2881Z" fill="white"/>
</svg>
