<svg width="28" height="28" viewBox="0 0 28 28" fill="none" xmlns="http://www.w3.org/2000/svg">
<path d="M14.1362 23.1853L14 23.3215L13.8501 23.1853C7.3787 17.3133 3.10077 13.4305 3.10077 9.49319C3.10077 6.76839 5.14437 4.7248 7.86916 4.7248C9.96726 4.7248 12.0109 6.08719 12.7329 7.94005H15.267C15.9891 6.08719 18.0327 4.7248 20.1307 4.7248C22.8555 4.7248 24.8991 6.76839 24.8991 9.49319C24.8991 13.4305 20.6212 17.3133 14.1362 23.1853ZM20.1307 2C17.7602 2 15.485 3.10354 14 4.83379C12.5149 3.10354 10.2397 2 7.86916 2C3.67298 2 0.375977 5.28338 0.375977 9.49319C0.375977 14.6294 5.00813 18.8392 12.0245 25.2016L14 27L15.9754 25.2016C22.9918 18.8392 27.6239 14.6294 27.6239 9.49319C27.6239 5.28338 24.3269 2 20.1307 2Z" fill="#FF6C22"/>
</svg>
