<svg width="21" height="20" viewBox="0 0 21 20" fill="none" xmlns="http://www.w3.org/2000/svg">
<circle cx="10.5031" cy="10.4191" r="7.50312" stroke="white" stroke-width="1.5" stroke-linecap="round" stroke-linejoin="round"/>
<path d="M9.59766 12.4901V12.4091C9.60334 11.8807 9.65589 11.4602 9.75533 11.1477C9.8576 10.8352 10.0025 10.5824 10.19 10.3892C10.3775 10.196 10.6033 10.0199 10.8675 9.8608C11.038 9.75284 11.1914 9.6321 11.3278 9.49858C11.4641 9.36506 11.5721 9.21165 11.6516 9.03835C11.7312 8.86506 11.771 8.6733 11.771 8.46307C11.771 8.21023 11.7113 7.99148 11.592 7.80682C11.4727 7.62216 11.3136 7.48011 11.1147 7.38068C10.9187 7.27841 10.6999 7.22727 10.4585 7.22727C10.2397 7.22727 10.0309 7.27273 9.83203 7.36364C9.63317 7.45455 9.46839 7.59659 9.33771 7.78977C9.20703 7.98011 9.13175 8.22585 9.11186 8.52699H7.81641C7.83629 8.01562 7.96555 7.58381 8.20419 7.23153C8.44283 6.87642 8.75817 6.60795 9.15021 6.42614C9.5451 6.24432 9.98118 6.15341 10.4585 6.15341C10.9812 6.15341 11.4386 6.25142 11.8306 6.44744C12.2227 6.64062 12.5266 6.91193 12.7425 7.26136C12.9613 7.60795 13.0707 8.01278 13.0707 8.47585C13.0707 8.79403 13.021 9.08097 12.9215 9.33665C12.8221 9.58949 12.68 9.81534 12.4954 10.0142C12.3136 10.2131 12.0948 10.3892 11.8391 10.5426C11.5977 10.6932 11.4016 10.8494 11.2511 11.0114C11.1033 11.1733 10.9954 11.3651 10.9272 11.5866C10.859 11.8082 10.8221 12.0824 10.8164 12.4091V12.4901H9.59766ZM10.2411 15.081C10.0082 15.081 9.80788 14.9986 9.64027 14.8338C9.47266 14.6662 9.38885 14.4645 9.38885 14.2287C9.38885 13.9957 9.47266 13.7969 9.64027 13.6321C9.80788 13.4645 10.0082 13.3807 10.2411 13.3807C10.4712 13.3807 10.6701 13.4645 10.8377 13.6321C11.0082 13.7969 11.0934 13.9957 11.0934 14.2287C11.0934 14.3849 11.0536 14.5284 10.9741 14.6591C10.8974 14.7869 10.7951 14.8892 10.6673 14.9659C10.5394 15.0426 10.3974 15.081 10.2411 15.081Z" fill="white"/>
</svg>
