<svg width="20" height="20" viewBox="0 0 20 20" fill="none" xmlns="http://www.w3.org/2000/svg">
<path fill-rule="evenodd" clip-rule="evenodd" d="M17.7885 6.11225C18.0946 6.27163 18.2137 6.64904 18.0543 6.95522C17.7438 7.55165 17.2834 8.08629 16.7199 8.54811C15.1496 9.83509 12.6988 10.625 9.99989 10.625C7.30093 10.625 4.85016 9.83509 3.27987 8.54812C2.71635 8.08629 2.25597 7.55164 1.9455 6.95522C1.78612 6.64905 1.90512 6.27163 2.21129 6.11225C2.51747 5.95287 2.89488 6.07187 3.05427 6.37804C3.27273 6.79771 3.61381 7.20564 4.0722 7.58131L4.07221 7.58132C5.36711 8.64259 7.51467 9.37497 9.99989 9.37497C12.4851 9.37497 14.6327 8.64259 15.9275 7.58133L15.9276 7.58131C16.386 7.20563 16.7271 6.7977 16.9455 6.37805C17.1049 6.07187 17.4823 5.95287 17.7885 6.11225Z" fill="#707070"/>
<path fill-rule="evenodd" clip-rule="evenodd" d="M11.9124 9.39645C12.2458 9.30711 12.5885 9.50498 12.6778 9.8384L13.5405 13.0581C13.6299 13.3916 13.432 13.7343 13.0986 13.8236C12.7652 13.9129 12.4225 13.7151 12.3331 13.3817L11.4704 10.1619C11.3811 9.8285 11.579 9.48579 11.9124 9.39645Z" fill="#707070"/>
<path fill-rule="evenodd" clip-rule="evenodd" d="M15.122 8.45528C15.3661 8.2112 15.7618 8.2112 16.0059 8.45527L18.3629 10.8123C18.607 11.0563 18.607 11.4521 18.363 11.6962C18.1189 11.9402 17.7231 11.9402 17.4791 11.6962L15.122 9.33916C14.8779 9.09509 14.8779 8.69936 15.122 8.45528Z" fill="#707070"/>
<path fill-rule="evenodd" clip-rule="evenodd" d="M4.8822 8.45528C5.12628 8.69935 5.12628 9.09508 4.8822 9.33916L2.52519 11.6962C2.28111 11.9402 1.88539 11.9402 1.64131 11.6962C1.39723 11.4521 1.39723 11.0564 1.64131 10.8123L3.99832 8.45527C4.2424 8.2112 4.63813 8.2112 4.8822 8.45528Z" fill="#707070"/>
<path fill-rule="evenodd" clip-rule="evenodd" d="M8.07765 9.39645C8.41106 9.48579 8.60893 9.8285 8.51959 10.1619L7.65684 13.3817C7.5675 13.7151 7.22478 13.9129 6.89137 13.8236C6.55795 13.7343 6.36009 13.3916 6.44943 13.0581L7.31218 9.83839C7.40152 9.50497 7.74423 9.30711 8.07765 9.39645Z" fill="#707070"/>
</svg>
