<svg width="20" height="21" viewBox="0 0 20 21" fill="none" xmlns="http://www.w3.org/2000/svg">
<path fill-rule="evenodd" clip-rule="evenodd" d="M9.63165 1.66206C9.85111 1.50197 10.1488 1.50197 10.3683 1.66206L12.3921 3.13829L14.897 3.13352C15.1686 3.133 15.4095 3.30801 15.493 3.56651L16.2625 5.95036L18.2918 7.41887C18.5119 7.57812 18.6039 7.86128 18.5195 8.11947L17.7409 10.5003L18.5195 12.8812C18.6039 13.1394 18.5119 13.4225 18.2918 13.5818L16.2625 15.0503L15.493 17.4341C15.4095 17.6926 15.1686 17.8676 14.897 17.8671L12.3921 17.8624L10.3683 19.3386C10.1488 19.4987 9.85111 19.4987 9.63165 19.3386L7.6079 17.8624L5.10295 17.8671C4.83131 17.8676 4.59044 17.6926 4.50699 17.4341L3.73745 15.0503L1.7081 13.5818C1.48804 13.4225 1.39603 13.1394 1.48047 12.8812L2.25907 10.5003L1.48047 8.11947C1.39603 7.86128 1.48804 7.57812 1.7081 7.41887L3.73745 5.95036L4.50699 3.56651C4.59044 3.30801 4.83132 3.133 5.10296 3.13352L7.6079 3.13829L9.63165 1.66206ZM9.99998 2.94061L8.17943 4.26861C8.07214 4.34687 7.94271 4.38893 7.80991 4.38867L5.55649 4.38438L4.86421 6.52887C4.82342 6.65525 4.74342 6.76535 4.63584 6.8432L2.81026 8.16426L3.51068 10.3061C3.55196 10.4323 3.55196 10.5684 3.51068 10.6946L2.81026 12.8364L4.63584 14.1574C4.74342 14.2353 4.82342 14.3454 4.86421 14.4718L5.55649 16.6163L7.80992 16.612C7.94272 16.6117 8.07214 16.6538 8.17943 16.7321L9.99998 18.06L11.8205 16.7321C11.9278 16.6538 12.0572 16.6117 12.19 16.612L14.4435 16.6163L15.1357 14.4718C15.1765 14.3454 15.2565 14.2353 15.3641 14.1574L17.1897 12.8364L16.4893 10.6946C16.448 10.5684 16.448 10.4323 16.4893 10.3061L17.1897 8.16426L15.3641 6.8432C15.2565 6.76535 15.1765 6.65525 15.1357 6.52887L14.4435 4.38438L12.19 4.38867C12.0572 4.38893 11.9278 4.34687 11.8205 4.26861L9.99998 2.94061Z" fill="white"/>
<path fill-rule="evenodd" clip-rule="evenodd" d="M13.7752 7.97505C14.0193 8.21913 14.0193 8.61486 13.7752 8.85893L9.60853 13.0256C9.36445 13.2697 8.96872 13.2697 8.72464 13.0256L6.64131 10.9423C6.39723 10.6982 6.39723 10.3025 6.64131 10.0584C6.88539 9.81431 7.28112 9.81431 7.52519 10.0584L9.16658 11.6998L12.8913 7.97505C13.1354 7.73097 13.5311 7.73097 13.7752 7.97505Z" fill="white"/>
</svg>
